<svg width="70" height="70" viewBox="0 0 70 70" fill="none" xmlns="http://www.w3.org/2000/svg">
<path d="M17.5 21.875H35V26.25H17.5V21.875Z" fill="#3b82f6"/>
<path d="M17.5 13.125H43.75V17.5H17.5V13.125Z" fill="#3b82f6"/>
<path d="M17.5 4.375H43.75V8.75H17.5V4.375Z" fill="#3b82f6"/>
<path d="M10.3053 61.25L22.6231 39.3838L38.885 53.5806C39.3766 54.0181 39.9605 54.339 40.5933 54.5195C41.2261 54.6999 41.8914 54.7354 42.5398 54.6231C43.1881 54.5108 43.8028 54.2538 44.3381 53.871C44.8733 53.4883 45.3154 52.9897 45.6313 52.4125L60.8781 29.6559L57.2447 27.2191L41.9322 50.0741L41.7791 50.2994L25.515 36.1025C25.0236 35.6676 24.4407 35.3486 23.8095 35.1691C23.1783 34.9896 22.5148 34.9542 21.868 35.0655C21.2213 35.1768 20.6078 35.4319 20.0729 35.8121C19.538 36.1922 19.0953 36.6877 18.7775 37.2619L8.75 55.0878V4.375H4.375V61.25C4.37616 62.41 4.83747 63.5221 5.65769 64.3423C6.47791 65.1625 7.59003 65.6238 8.75 65.625H65.625V61.25H10.3053Z" fill="#3b82f6"/>
</svg>
