<svg id="visual" viewBox="0 0 900 600" width="900" height="600" xmlns="http://www.w3.org/2000/svg" xmlns:xlink="http://www.w3.org/1999/xlink" version="1.1"><rect x="0" y="0" width="900" height="600" fill="#3b82f6"></rect><defs><linearGradient id="grad1_0" x1="33.3%" y1="0%" x2="100%" y2="100%"><stop offset="20%" stop-color="#3b82f6" stop-opacity="1"></stop><stop offset="80%" stop-color="#3b82f6" stop-opacity="1"></stop></linearGradient></defs><defs><linearGradient id="grad2_0" x1="0%" y1="0%" x2="66.7%" y2="100%"><stop offset="20%" stop-color="#3b82f6" stop-opacity="1"></stop><stop offset="80%" stop-color="#3b82f6" stop-opacity="1"></stop></linearGradient></defs><g transform="translate(900, 0)"><path d="M0 216.3C-31.3 216.2 -62.6 216 -82.8 199.9C-103 183.7 -112 151.7 -130.8 130.8C-149.6 110 -178.1 100.3 -194 80.4C-209.9 60.4 -213.1 30.2 -216.3 0L0 0Z" fill="#181818"></path></g><g transform="translate(0, 600)"><path d="M0 -216.3C22 -199.6 44 -183 72.7 -175.5C101.5 -168.1 137 -170 153 -153C169 -136 165.5 -100.2 172.8 -71.6C180.1 -42.9 198.2 -21.5 216.3 0L0 0Z" fill="#181818"></path></g></svg>