<svg width="1152" height="700" viewBox="0 0 1152 700" fill="none" xmlns="http://www.w3.org/2000/svg">
  <path d="M1152 0H0V700H1152V0Z" fill="white" />
  <path d="M1152 252.35C1111.94 252.233 1071.87 252 1046.02 233.217C1020.16 214.317 1008.64 176.983 984.576 152.6C960.512 128.333 924.032 117.017 903.68 93.8C883.328 70.4667 879.232 35.2333 875.136 0H1152V252.35Z" fill="#181818" />
  <path d="M0 447.65C28.16 467.133 56.32 486.5 93.056 495.25C129.92 503.883 175.36 501.667 195.84 521.5C216.32 541.333 211.84 583.1 221.184 616.467C230.528 649.95 253.696 674.917 276.864 700H0V447.65Z" fill="#3b82f6" />
</svg>