<svg width="955" height="608" viewBox="0 0 955 608" fill="none" xmlns="http://www.w3.org/2000/svg">
<path d="M537.353 182.436C582.919 190.582 641.592 199.333 658.601 228.45C675.454 257.719 650.487 307.204 640.656 357.292C630.825 407.531 635.974 458.223 614.752 493.375C593.686 528.528 546.248 548.292 500.059 552.969C453.713 557.796 408.304 547.688 369.916 529.886C331.529 512.234 300.008 486.888 279.566 456.413C259.28 425.937 250.229 390.332 223.233 344.77C196.394 299.208 151.764 243.688 156.914 200.691C162.063 157.693 216.992 127.218 270.203 122.39C323.415 117.713 374.91 138.533 417.042 152.714C459.018 166.896 491.632 174.289 537.353 182.436Z" fill="#3b82f6"/>
</svg>
