<svg width="70" height="70" viewBox="0 0 70 70" fill="none" xmlns="http://www.w3.org/2000/svg">
<path d="M14.5833 14.5833H20.4167V17.5C20.4167 20.7083 23.0417 23.3333 26.25 23.3333H43.75C46.9583 23.3333 49.5833 20.7083 49.5833 17.5V14.5833H55.4167V29.1666H61.25V14.5833C61.25 11.375 58.625 8.74996 55.4167 8.74996H43.225C42 5.36663 38.7917 2.91663 35 2.91663C31.2083 2.91663 28 5.36663 26.775 8.74996H14.5833C11.375 8.74996 8.75 11.375 8.75 14.5833V55.4166C8.75 58.625 11.375 61.25 14.5833 61.25H32.0833V55.4166H14.5833V14.5833ZM35 8.74996C36.6042 8.74996 37.9167 10.0625 37.9167 11.6666C37.9167 13.2708 36.6042 14.5833 35 14.5833C33.3958 14.5833 32.0833 13.2708 32.0833 11.6666C32.0833 10.0625 33.3958 8.74996 35 8.74996Z" fill="#3b82f6"/>
<path d="M63.4376 35.7292C62.2417 34.5333 60.2584 34.5333 59.0626 35.7292L45.2376 49.5833L38.6459 43.0208C37.4501 41.825 35.4959 41.825 34.2709 43.0208C33.0751 44.2166 33.0751 46.2 34.2709 47.3958L43.1667 56.2625C44.3042 57.4 46.1417 57.4 47.2792 56.2625L63.4084 40.1041C64.6334 38.9083 64.6334 36.925 63.4376 35.7292Z" fill="#3b82f6"/>
</svg>
