<svg width="70" height="70" viewBox="0 0 70 70" fill="none" xmlns="http://www.w3.org/2000/svg">
<path d="M34.16 0C53.9595 0 70 15.6695 70 35C70 54.3305 53.956 70 34.16 70C22.9915 70 12.663 64.9705 5.915 56.539C5.72584 56.3035 5.58593 56.0324 5.5036 55.7418C5.42128 55.4512 5.3982 55.147 5.43574 54.8473C5.47329 54.5475 5.57069 54.2584 5.72217 53.9971C5.87364 53.7358 6.07609 53.5075 6.3175 53.326C6.80977 52.9515 7.42851 52.7833 8.04264 52.8571C8.65676 52.931 9.21802 53.241 9.6075 53.7215C15.4805 61.054 24.4475 65.422 34.1635 65.422C51.366 65.422 65.3135 51.8 65.3135 35C65.3135 18.2 51.366 4.578 34.1635 4.578C29.5218 4.56015 24.9341 5.57281 20.7312 7.54291C16.5283 9.51301 12.8151 12.3914 9.8595 15.9705C9.46385 16.4467 8.89824 16.7499 8.28269 16.8159C7.66714 16.8819 7.0501 16.7055 6.5625 16.324C6.32319 16.1393 6.12347 15.9083 5.97524 15.6449C5.82701 15.3814 5.73329 15.0908 5.69965 14.7904C5.66602 14.49 5.69316 14.1859 5.77946 13.8962C5.86576 13.6064 6.00946 13.337 6.202 13.104C12.9605 4.879 23.1525 0 34.1635 0H34.16ZM36.0675 24.017L45.542 33.4915C46.459 34.4085 46.4765 35.8715 45.5805 36.7675L36.33 46.025C36.1123 46.2381 35.8547 46.4061 35.5719 46.5195C35.2892 46.6329 34.9869 46.6894 34.6823 46.6858C34.3777 46.6823 34.0767 46.6187 33.7967 46.4986C33.5168 46.3787 33.2632 46.2046 33.0505 45.9865C32.8326 45.7736 32.6589 45.5198 32.5392 45.2397C32.4195 44.9596 32.3562 44.6586 32.3529 44.354C32.3497 44.0494 32.4065 43.7471 32.5202 43.4645C32.6339 43.1819 32.8022 42.9245 33.0155 42.707L38.43 37.289L2.345 37.2925C2.04043 37.2962 1.73812 37.2398 1.45537 37.1266C1.17261 37.0133 0.914961 36.8454 0.697157 36.6325C0.479354 36.4195 0.30567 36.1658 0.186045 35.8857C0.0664189 35.6055 0.00319832 35.3046 0 35C0 33.7365 1.05 32.711 2.345 32.711H38.283L32.83 27.2545C32.6121 27.0416 32.4384 26.7878 32.3187 26.5077C32.199 26.2276 32.1357 25.9266 32.1324 25.622C32.1292 25.3174 32.186 25.0151 32.2997 24.7325C32.4134 24.4499 32.5817 24.1925 32.795 23.975C33.2344 23.5468 33.8257 23.3104 34.4392 23.3177C35.0527 23.3249 35.6383 23.5751 36.0675 24.0135V24.017Z" fill="#3b82f6"/>
</svg>
