<svg width="70" height="70" viewBox="0 0 70 70" fill="none" xmlns="http://www.w3.org/2000/svg">
<path d="M52.5 23.3334C57.3325 23.3334 61.25 19.4159 61.25 14.5834C61.25 9.75088 57.3325 5.83337 52.5 5.83337C47.6675 5.83337 43.75 9.75088 43.75 14.5834C43.75 19.4159 47.6675 23.3334 52.5 23.3334Z" stroke="#3b82f6" stroke-width="2"/>
<path d="M52.5 64.1668C57.3325 64.1668 61.25 60.2492 61.25 55.4167C61.25 50.5843 57.3325 46.6667 52.5 46.6667C47.6675 46.6667 43.75 50.5843 43.75 55.4167C43.75 60.2492 47.6675 64.1668 52.5 64.1668Z" stroke="#3b82f6" stroke-width="2"/>
<path d="M17.5 43.75C22.3325 43.75 26.25 39.8325 26.25 35C26.25 30.1675 22.3325 26.25 17.5 26.25C12.6675 26.25 8.75 30.1675 8.75 35C8.75 39.8325 12.6675 43.75 17.5 43.75Z" stroke="#3b82f6" stroke-width="2"/>
<path d="M44.94 51.0066L25.0658 39.4129M44.94 18.9933L25.0658 30.587L44.94 18.9933Z" stroke="#3b82f6" stroke-width="2" stroke-linecap="round" stroke-linejoin="round"/>
</svg>
