<svg width="70" height="70" viewBox="0 0 70 70" fill="none" xmlns="http://www.w3.org/2000/svg">
<path d="M61.25 17.5H65.625V35H61.25V17.5Z" fill="#3b82f6"/>
<path d="M50.3125 10.9375H54.6875V35H50.3125V10.9375Z" fill="#3b82f6"/>
<path d="M39.375 21.875H43.75V35H39.375V21.875Z" fill="#3b82f6"/>
<path d="M35 65.625H30.625V52.5C30.6233 50.76 29.9313 49.0919 28.701 47.8615C27.4706 46.6312 25.8025 45.9392 24.0625 45.9375H15.3125C13.5725 45.9392 11.9044 46.6312 10.674 47.8615C9.4437 49.0919 8.75174 50.76 8.75 52.5V65.625H4.375V52.5C4.37847 49.6003 5.53193 46.8203 7.58236 44.7699C9.63278 42.7194 12.4128 41.566 15.3125 41.5625H24.0625C26.9622 41.566 29.7422 42.7194 31.7926 44.7699C33.8431 46.8203 34.9965 49.6003 35 52.5V65.625Z" fill="#3b82f6"/>
<path d="M19.6875 19.6875C20.9854 19.6875 22.2542 20.0724 23.3334 20.7935C24.4126 21.5146 25.2538 22.5395 25.7505 23.7386C26.2472 24.9378 26.3771 26.2573 26.1239 27.5303C25.8707 28.8033 25.2457 29.9726 24.3279 30.8904C23.4101 31.8082 22.2408 32.4332 20.9678 32.6864C19.6948 32.9396 18.3753 32.8097 17.1761 32.313C15.977 31.8163 14.9521 30.9751 14.231 29.8959C13.5099 28.8167 13.125 27.5479 13.125 26.25C13.125 24.5095 13.8164 22.8403 15.0471 21.6096C16.2778 20.3789 17.947 19.6875 19.6875 19.6875ZM19.6875 15.3125C17.5243 15.3125 15.4096 15.954 13.611 17.1558C11.8123 18.3576 10.4104 20.0658 9.58257 22.0644C8.75474 24.063 8.53814 26.2621 8.96017 28.3838C9.38219 30.5055 10.4239 32.4543 11.9535 33.984C13.4832 35.5136 15.432 36.5553 17.5537 36.9773C19.6754 37.3994 21.8745 37.1828 23.8731 36.3549C25.8717 35.5271 27.5799 34.1252 28.7817 32.3266C29.9835 30.5279 30.625 28.4132 30.625 26.25C30.625 24.8137 30.3421 23.3914 29.7924 22.0644C29.2428 20.7374 28.4371 19.5317 27.4215 18.516C26.4058 17.5004 25.2001 16.6947 23.8731 16.1451C22.5461 15.5954 21.1238 15.3125 19.6875 15.3125Z" fill="#3b82f6"/>
</svg>
