<svg width="70" height="70" viewBox="0 0 70 70" fill="none" xmlns="http://www.w3.org/2000/svg">
<path d="M35 8.75L2.91663 33.25L6.44579 37.8875L11.6666 33.8917V61.25H58.3333V33.8917L63.5541 37.8583L67.0833 33.25L35 8.75ZM52.5 55.4167H17.5V29.4583L35 16.1L52.5 29.4583V55.4167ZM26.25 40.8333C26.25 42.4375 24.9375 43.75 23.3333 43.75C21.7291 43.75 20.4166 42.4375 20.4166 40.8333C20.4166 39.2292 21.7291 37.9167 23.3333 37.9167C24.9375 37.9167 26.25 39.2292 26.25 40.8333ZM35 37.9167C36.6041 37.9167 37.9166 39.2292 37.9166 40.8333C37.9166 42.4375 36.6041 43.75 35 43.75C33.3958 43.75 32.0833 42.4375 32.0833 40.8333C32.0833 39.2292 33.3958 37.9167 35 37.9167ZM43.75 40.8333C43.75 39.2292 45.0625 37.9167 46.6666 37.9167C48.2708 37.9167 49.5833 39.2292 49.5833 40.8333C49.5833 42.4375 48.2708 43.75 46.6666 43.75C45.0625 43.75 43.75 42.4375 43.75 40.8333Z" fill="#3b82f6"/>
</svg>
